<svg xmlns="http://www.w3.org/2000/svg" version="1.1" xmlns:xlink="http://www.w3.org/1999/xlink" xmlns:svgjs="http://svgjs.dev/svgjs" width="1500" height="1500" viewBox="0 0 1500 1500"><rect width="1500" height="1500" fill="#000000"></rect><g transform="matrix(0.6666666666666666,0,0,0.6666666666666666,249.85778443113782,249.85778443113765)"><svg viewBox="0 0 334 334" data-background-color="#293040" preserveAspectRatio="xMidYMid meet" height="1500" width="1500" xmlns="http://www.w3.org/2000/svg" xmlns:xlink="http://www.w3.org/1999/xlink"><g id="tight-bounds" transform="matrix(1,0,0,1,0.04749999999998522,0.04750000000001364)"><svg viewBox="0 0 333.90454557049503 333.90454557049503" height="333.90454557049503" width="333.90454557049503"><g><svg></svg></g><g><svg viewBox="0 0 333.90454557049503 333.90454557049503" height="333.90454557049503" width="333.90454557049503"><g><path d="M0 166.952c0-92.205 74.747-166.952 166.952-166.952 92.205 0 166.952 74.747 166.953 166.952 0 92.205-74.747 166.952-166.953 166.953-92.205 0-166.952-74.747-166.952-166.953zM166.952 326.98c88.381 0 160.028-71.647 160.028-160.028 0-88.381-71.647-160.028-160.028-160.028-88.381 0-160.028 71.647-160.028 160.028 0 88.381 71.647 160.028 160.028 160.028z" data-fill-palette-color="tertiary" fill="#ffffff" stroke="transparent"></path><ellipse rx="160.27418187383762" ry="160.27418187383762" cx="166.95227278524752" cy="166.95227278524752" fill="#ffffff" stroke="transparent" stroke-width="0" fill-opacity="1" data-fill-palette-color="tertiary"></ellipse></g><g transform="matrix(1,0,0,1,81.91525808081421,71.17305217166896)"><svg viewBox="0 0 170.0740294088666 191.55844122715712" height="191.55844122715712" width="170.0740294088666"><g><svg viewBox="0 0 170.0740294088666 191.55844122715712" height="191.55844122715712" width="170.0740294088666"><g><svg viewBox="0 0 213.1584412271571 240.08544324966795" height="191.55844122715712" width="170.0740294088666"><g transform="matrix(1,0,0,1,0,143.8514098874921)"><svg viewBox="0 0 213.1584412271571 96.23403336217582" height="96.23403336217582" width="213.1584412271571"><g id="textblocktransform"><svg viewBox="0 0 213.1584412271571 96.23403336217582" height="96.23403336217582" width="213.1584412271571" id="textblock"><g><svg viewBox="0 0 213.1584412271571 96.23403336217582" height="96.23403336217582" width="213.1584412271571"><g transform="matrix(1,0,0,1,0,0)"><svg width="213.1584412271571" viewBox="1.15 -39.95 132.77928561697 59.95" height="96.23403336217582" data-palette-color="#000000"><path d="M20.3 5.05L20.3 5.05Q17.6 5.05 15.1 4.28 12.6 3.5 10.7 1.95L10.7 1.95Q9.6 2.15 8.4 2.25 7.2 2.35 5.9 2.35L5.9 2.35Q4.8 2.35 3.4 2.05 2 1.75 1.25 1.05L1.25 1.05Q1.15 0.95 1.15 0.85L1.15 0.85Q1.15 0.65 1.33 0.58 1.5 0.5 1.65 0.65L1.65 0.65Q2.25 1.15 3.5 1.38 4.75 1.6 5.9 1.6L5.9 1.6Q8.1 1.6 9.95 1.3L9.95 1.3Q8.3-0.3 7.35-2.55 6.4-4.8 6.5-7.7L6.5-7.7Q3.9-8.7 2.65-10.6 1.4-12.5 1.4-14.65L1.4-14.65Q1.4-16.75 2.58-18.68 3.75-20.6 6.03-21.85 8.3-23.1 11.6-23.1L11.6-23.1Q13-23.1 14.65-22.8L14.65-22.8Q17.6-25.05 20.6-26.1 23.6-27.15 25.5-27.15L25.5-27.15Q28.6-27.15 30.05-25.63 31.5-24.1 31.5-21.8L31.5-21.8Q31.5-19.2 29.75-16.15 28-13.1 24.65-10.75L24.65-10.75Q24.45-8.15 22.98-5.63 21.5-3.1 18.8-1.15 16.1 0.8 12.05 1.7L12.05 1.7Q14.85 3.6 18.5 3.6L18.5 3.6Q21.25 3.6 24.03 2.4 26.8 1.2 29.13-1.28 31.45-3.75 32.85-7.58 34.25-11.4 34.25-16.65L34.25-16.65Q34.25-17.7 34.2-18.82 34.15-19.95 34-21.15L34-21.15Q33.85-22.65 33.38-24.35 32.9-26.05 32.5-27.85 32.1-29.65 32.1-31.4L32.1-31.4Q32.1-33.05 32.63-34.63 33.15-36.2 34.55-37.6L34.55-37.6Q35.7-38.8 37.27-39.38 38.85-39.95 40.35-39.95L40.35-39.95Q42.85-39.95 44.15-38.65L44.15-38.65Q44.65-38.15 44.85-37.68 45.05-37.2 45.05-36.8L45.05-36.8Q45.05-36 44.45-36L44.45-36Q44.05-36 43.65-36.45L43.65-36.45Q42.9-37.3 41.63-37.77 40.35-38.25 39.05-38.25L39.05-38.25Q38.05-38.25 37.13-37.95 36.2-37.65 35.5-36.95L35.5-36.95Q34.4-35.85 33.93-34.52 33.45-33.2 33.45-31.75L33.45-31.75Q33.45-29.9 34.02-27.95 34.6-26 35.35-24.18 36.1-22.35 36.55-20.75L36.55-20.75Q37.9-16.2 37.9-12.45L37.9-12.45Q37.9-8.05 36.38-4.75 34.85-1.45 32.27 0.73 29.7 2.9 26.58 3.98 23.45 5.05 20.3 5.05ZM24.7-12.15L24.7-12.15Q27.6-14.45 29.2-17.18 30.8-19.9 30.8-22.15L30.8-22.15Q30.8-24.05 29.53-25.3 28.25-26.55 25.5-26.55L25.5-26.55Q23.75-26.55 21.08-25.6 18.4-24.65 15.75-22.6L15.75-22.6Q20.05-21.5 22.3-18.57 24.55-15.65 24.7-12.15ZM6.55-8.65L6.55-8.65Q6.7-9.85 7-11.25L7-11.25Q7.85-14.95 9.78-17.68 11.7-20.4 14-22.3L14-22.3Q13.4-22.4 12.85-22.45 12.3-22.5 11.75-22.5L11.75-22.5Q8.75-22.5 6.68-21.35 4.6-20.2 3.53-18.4 2.45-16.6 2.45-14.7L2.45-14.7Q2.45-12.9 3.45-11.25 4.45-9.6 6.55-8.65ZM11.7-7.65L11.7-7.65Q15.4-7.65 18.53-8.8 21.65-9.95 24.1-11.7L24.1-11.7Q24.15-14.05 23.13-16.18 22.1-18.3 20.1-19.88 18.1-21.45 15.15-22.1L15.15-22.1Q12.85-20.25 10.95-17.48 9.05-14.7 8.2-11L8.2-11Q7.85-9.6 7.75-8.2L7.75-8.2Q9.5-7.65 11.7-7.65ZM11.25 1.1L11.25 1.1Q15.2 0.3 17.93-1.45 20.65-3.2 22.15-5.53 23.65-7.85 24-10.3L24-10.3Q21.6-8.75 18.5-7.78 15.4-6.8 11.7-6.8L11.7-6.8Q10.6-6.8 9.58-6.95 8.55-7.1 7.7-7.3L7.7-7.3Q7.65-4.55 8.63-2.43 9.6-0.3 11.25 1.1ZM51.5 0.25L51.5 0.25Q49.4 0.25 49.4-2.1L49.4-2.1Q49.4-3 49.75-4.25 50.1-5.5 50.85-7L50.85-7Q51.25-7.85 51.92-9.03 52.6-10.2 53.15-11.35 53.7-12.5 53.7-13.15L53.7-13.15Q53.7-13.8 53-13.8L53-13.8Q52.05-13.8 51.02-12.78 50-11.75 49-10.15 48-8.55 47.1-6.8 46.2-5.05 45.55-3.53 44.9-2 44.6-1.2L44.6-1.2Q44.3-0.45 43.75-0.25 43.2-0.05 42.57-0.05 41.95-0.05 41.4 0.15L41.4 0.15Q42.1-1.45 42.55-2.45 43-3.45 43.5-4.48 44-5.5 44.7-7.25L44.7-7.25Q45.1-8.15 45.6-9.33 46.1-10.5 46.47-11.63 46.85-12.75 46.85-13.4L46.85-13.4Q46.85-14.15 46.35-14.15L46.35-14.15Q45.75-14.15 45.15-13.4 44.55-12.65 44.07-11.73 43.6-10.8 43.3-10.25L43.3-10.25Q42.55-8.8 41.8-7.4 41.05-6 40.1-4.7L40.1-4.7 40.05-4.7Q39.9-4.7 39.72-4.8 39.55-4.9 39.6-4.95L39.6-4.95Q40.45-6.3 41.22-7.65 42-9 42.65-10.35L42.65-10.35Q43.2-11.4 43.85-12.58 44.5-13.75 45.35-14.55 46.2-15.35 47.3-15.35L47.3-15.35Q47.8-15.35 48.45-15.1L48.45-15.1Q49.15-14.8 49.15-13.75L49.15-13.75Q49.15-13.2 48.95-12.4 48.75-11.6 48.4-10.6L48.4-10.6Q49.7-12.45 51.15-13.78 52.6-15.1 53.8-15.1L53.8-15.1Q55.7-15.1 55.7-13.3L55.7-13.3Q55.7-12.2 55.05-10.6L55.05-10.6Q54.85-10.05 54.32-8.88 53.8-7.7 53.27-6.28 52.75-4.85 52.35-3.55 51.95-2.25 51.95-1.4L51.95-1.4Q51.95-0.5 52.5-0.5L52.5-0.5Q52.85-0.5 53.42-0.83 54-1.15 54.8-1.9L54.8-1.9Q56.25-3.2 57.52-5.2 58.8-7.2 60.55-10.55L60.55-10.55Q60.55-10.65 60.65-10.65L60.65-10.65Q60.8-10.65 60.95-10.5 61.1-10.35 61-10.25L61-10.25Q59.2-6.75 57.72-4.42 56.25-2.1 54.77-0.93 53.3 0.25 51.5 0.25ZM60.8 0.25L60.8 0.25Q59.1 0.25 58.47-0.7 57.85-1.65 57.85-3.05L57.85-3.05Q57.85-4.5 58.35-6.1 58.85-7.7 59.3-8.65L59.3-8.65Q60.9-12 63.77-13.78 66.65-15.55 69.7-15.55L69.7-15.55Q70.09-15.55 70.52-15.55 70.95-15.55 71.34-15.45L71.34-15.45Q72.34-15.3 72.34-15.2L72.34-15.2Q72.34-15.1 71.62-15 70.9-14.9 70.55-14.9L70.55-14.9Q68.09-14.9 66.17-13.6 64.25-12.3 62.9-10.3 61.55-8.3 60.82-6.23 60.1-4.15 60.1-2.65L60.1-2.65Q60.1-1.7 60.42-1.1 60.75-0.5 61.4-0.5L61.4-0.5Q62.1-0.5 63-1.45 63.9-2.4 64.75-3.78 65.59-5.15 66.3-6.48 67-7.8 67.34-8.5L67.34-8.5 69.5-13Q70.34-13.2 71.22-13.48 72.09-13.75 72.9-14.1L72.9-14.1Q72.05-12.65 71.27-11.05 70.5-9.45 69.7-7.9L69.7-7.9Q69.09-6.75 68.52-5.2 67.95-3.65 67.95-2.4L67.95-2.4 67.95-2.2Q67.95-1.8 68.05-1.33 68.15-0.85 68.59-0.85L68.59-0.85Q69.15-0.85 70-1.53 70.84-2.2 71.2-2.55L71.2-2.55Q72.8-4.15 73.97-6.1 75.15-8.05 76.15-10.05L76.15-10.05Q76.25-10.15 76.3-10.15L76.3-10.15Q76.7-10.15 76.59-9.75L76.59-9.75Q76.59-9.75 76.37-9.3 76.15-8.85 76.09-8.8L76.09-8.8Q75.15-7.05 74.2-5.45 73.25-3.85 71.95-2.4L71.95-2.4Q71.15-1.6 70-0.7 68.84 0.2 67.7 0.2L67.7 0.2Q66.59 0.2 66.15-0.68 65.7-1.55 65.7-2.65L65.7-2.65Q65.7-3.35 65.82-4.03 65.95-4.7 66.09-5.2L66.09-5.2Q65.75-4.3 64.87-3 64-1.7 62.92-0.73 61.85 0.25 60.8 0.25ZM65.74 20L65.74 20Q66.34 19 67.64 16.6 68.94 14.2 70.59 10.98 72.24 7.75 73.97 4.17 75.69 0.6 77.14-2.7L77.14-2.7Q77.09-2.85 77.09-3.03 77.09-3.2 77.09-3.35L77.09-3.35Q77.09-4.55 77.59-5.55 78.09-6.55 78.84-6.95L78.84-6.95 78.99-7Q79.54-8.45 79.97-9.7 80.39-10.95 80.59-11.9L80.59-11.9Q80.79-12.65 80.79-13.25L80.79-13.25Q80.79-14.1 80.29-14.1L80.29-14.1Q79.94-14.1 79.42-13.65 78.89-13.2 78.34-12.45L78.34-12.45Q77.49-11.15 76.84-10.05 76.19-8.95 75.54-7.8 74.89-6.65 73.94-5.1L73.94-5.1Q73.84-4.95 73.62-5 73.39-5.05 73.44-5.25L73.44-5.25Q74.39-6.85 75.29-8.58 76.19-10.3 77.07-11.8 77.94-13.3 78.82-14.25 79.69-15.2 80.59-15.2L80.59-15.2Q81.74-15.2 82.17-14.3 82.59-13.4 82.59-12.25L82.59-12.25Q82.59-11.6 82.49-10.95 82.39-10.3 82.24-9.75L82.24-9.75Q82.64-10.7 83.47-11.98 84.29-13.25 85.39-14.25 86.49-15.25 87.54-15.25L87.54-15.25Q89.19-15.25 89.82-14.3 90.44-13.35 90.44-12L90.44-12Q90.44-10.55 89.97-8.95 89.49-7.35 88.99-6.35L88.99-6.35Q87.89-4.05 86.19-2.48 84.49-0.9 82.44-0.15L82.44-0.15Q84.84 0 86.64-0.9 88.44-1.8 89.84-3.35 91.24-4.9 92.34-6.8 93.44-8.7 94.39-10.55L94.39-10.55Q94.44-10.75 94.69-10.75L94.69-10.75Q94.84-10.75 94.94-10.63 95.04-10.5 94.94-10.35L94.94-10.35Q93.94-8.35 92.84-6.43 91.74-4.5 90.32-2.93 88.89-1.35 87.02-0.43 85.14 0.5 82.54 0.5L82.54 0.5Q80.89 0.5 79.84 0.15 78.79-0.2 78.19-0.75L78.19-0.75 77.74 0.2 77.39 0.8Q76.69 2.2 75.69 4.33 74.69 6.45 73.59 8.88 72.49 11.3 71.52 13.5 70.54 15.7 69.84 17.28 69.14 18.85 68.94 19.25L68.94 19.25Q68.09 19.45 67.32 19.53 66.54 19.6 65.74 20ZM80.14-0.75L80.14-0.75Q81.69-0.75 82.99-1.85 84.29-2.95 85.32-4.5 86.34-6.05 86.89-7.3L86.89-7.3Q87.09-7.75 87.42-8.68 87.74-9.6 88.02-10.65 88.29-11.7 88.29-12.6L88.29-12.6Q88.29-13.4 87.99-13.93 87.69-14.45 86.94-14.45L86.94-14.45Q86.29-14.45 85.49-13.63 84.69-12.8 83.87-11.58 83.04-10.35 82.37-9.1 81.69-7.85 81.24-7L81.24-7Q81.49-6.75 81.59-6.45 81.69-6.15 81.64-6.05L81.64-6.05Q81.44-6.15 81.24-6.15 81.04-6.15 80.84-6.15L80.84-6.15 78.64-1.6Q78.99-0.75 80.14-0.75ZM101.89-18.5L101.89-18.5Q101.19-18.5 100.72-18.98 100.24-19.45 100.24-20.1L100.24-20.1Q100.24-20.95 100.82-21.55 101.39-22.15 102.19-22.15L102.19-22.15Q102.89-22.15 103.39-21.65 103.89-21.15 103.89-20.4L103.89-20.4Q103.89-19.6 103.29-19.05 102.69-18.5 101.89-18.5ZM96.39 0.25L96.39 0.25Q95.49 0.25 94.97-0.43 94.44-1.1 94.44-2.2L94.44-2.2Q94.44-3.6 95.02-5.2 95.59-6.8 96.37-8.43 97.14-10.05 97.74-11.5L97.74-11.5Q97.99-12.2 98.19-12.75 98.39-13.3 98.39-13.65L98.39-13.65Q98.39-14.15 97.94-14.15L97.94-14.15Q97.34-14.15 96.74-13.4 96.14-12.65 95.67-11.73 95.19-10.8 94.89-10.25L94.89-10.25Q94.14-8.8 93.27-7.25 92.39-5.7 91.49-4.4L91.49-4.4Q91.49-4.35 91.39-4.35L91.39-4.35Q91.29-4.35 91.14-4.5 90.99-4.65 91.04-4.7L91.04-4.7Q91.99-6.05 92.82-7.58 93.64-9.1 94.34-10.5L94.34-10.5Q94.84-11.55 95.47-12.68 96.09-13.8 96.94-14.58 97.79-15.35 98.89-15.35L98.89-15.35Q99.39-15.35 100.04-15.1L100.04-15.1Q100.79-14.8 100.79-13.8L100.79-13.8Q100.79-13.3 100.62-12.63 100.44-11.95 100.14-11.1L100.14-11.1Q99.49-9.4 98.72-7.68 97.94-5.95 97.29-4.2L97.29-4.2Q96.79-2.85 96.79-1.8L96.79-1.8Q96.79-0.65 97.54-0.65L97.54-0.65Q98.24-0.65 99.69-1.9L99.69-1.9Q101.14-3.2 102.39-5.18 103.64-7.15 105.39-10.5L105.39-10.5Q105.44-10.6 105.59-10.6L105.59-10.6Q105.69-10.6 105.82-10.48 105.94-10.35 105.89-10.25L105.89-10.25Q103.24-5.1 101.14-2.43 99.04 0.25 96.39 0.25ZM101.54 19.6L101.54 19.6Q101.24 19.6 100.94 19.45L100.94 19.45Q100.14 19.05 99.74 17.85 99.34 16.65 99.34 14.85L99.34 14.85Q99.34 12.6 99.86 9.53 100.39 6.45 101.29 2.93 102.19-0.6 103.34-4.25L103.34-4.25Q103.19-4.65 103.19-5.1L103.19-5.1Q103.19-5.6 103.39-6 103.59-6.4 104.09-6.5L104.09-6.5Q105.29-10.2 106.61-13.73 107.94-17.25 109.24-20.33 110.54-23.4 111.69-25.7 112.84-28 113.74-29.25L113.74-29.25Q115.04-31 116.46-31.93 117.89-32.85 118.99-32.85L118.99-32.85Q119.84-32.85 120.34-32.33 120.84-31.8 120.84-30.65L120.84-30.65Q120.84-29.55 120.21-27.88 119.59-26.2 118.14-23.85L118.14-23.85Q117.04-22.1 115.66-20.18 114.29-18.25 112.89-16.45 111.49-14.65 110.21-13.23 108.94-11.8 108.04-11L108.04-11 106.29-5.95Q106.69-5.6 107.19-4.8 107.69-4 107.74-2.95L107.74-2.95Q108.14-2.85 108.49-2.78 108.84-2.7 109.19-2.7L109.19-2.7Q110.79-2.7 112.09-4.13 113.39-5.55 115.19-8.9L115.19-8.9Q115.29-9.05 115.39-9.05L115.39-9.05Q115.54-9.05 115.61-8.9 115.69-8.75 115.59-8.55L115.59-8.55Q114.94-7.35 114.36-6.28 113.79-5.2 113.14-4.35L113.14-4.35Q112.24-3.2 111.01-2.55 109.79-1.9 107.79-2.05L107.79-2.05Q107.94-1.15 107.94 0L107.94 0Q107.94 2 107.59 4.58 107.24 7.15 106.61 9.78 105.99 12.4 105.19 14.63 104.39 16.85 103.46 18.23 102.54 19.6 101.54 19.6ZM108.39-12.1L108.39-12.1Q109.59-13.5 111.24-15.63 112.89-17.75 114.59-20.1 116.29-22.45 117.54-24.5L117.54-24.5Q118.69-26.4 119.19-27.9 119.69-29.4 119.69-30.35L119.69-30.35Q119.69-32 118.69-32L118.69-32Q118.04-32 117.06-31.1 116.09-30.2 115.04-28.3L115.04-28.3Q114.29-26.95 113.44-25.05 112.59-23.15 111.76-21.05 110.94-18.95 110.21-17.07 109.49-15.2 109.01-13.85 108.54-12.5 108.39-12.1ZM101.94 18.7L101.94 18.7Q102.49 18.7 103.39 16.65L103.39 16.65Q104.29 14.65 105.14 11.93 105.99 9.2 106.54 6.2 107.09 3.2 107.09 0.5L107.09 0.5Q107.09-0.85 106.94-1.95L106.94-1.95Q106.29-2.05 105.89-2.18 105.49-2.3 105.24-2.6L105.24-2.6Q104.19 0.7 103.26 4.03 102.34 7.35 101.99 9.55L101.99 9.55Q101.94 9.8 101.79 10.93 101.64 12.05 101.51 13.53 101.39 15 101.39 16.3L101.39 16.3Q101.39 17.3 101.51 18 101.64 18.7 101.94 18.7ZM112.29 20L112.29 20Q111.49 20 111.01 19.48 110.54 18.95 110.54 17.9L110.54 17.9Q110.54 17.05 110.91 15.9 111.29 14.75 112.09 13.3L112.09 13.3Q113.09 11.5 114.44 9.6 115.79 7.7 117.26 6 118.74 4.3 120.09 3.05 121.44 1.8 122.34 1.35L122.34 1.35Q122.54 0.85 122.91-0.25 123.29-1.35 123.69-2.58 124.09-3.8 124.39-4.65 124.69-5.5 124.69-5.5L124.69-5.5Q124.49-5.2 123.89-4.3 123.29-3.4 122.36-2.33 121.44-1.25 120.34-0.5 119.24 0.25 118.04 0.25L118.04 0.25Q116.09 0.25 116.09-1.85L116.09-1.85Q116.09-3.6 117.64-6.95L117.64-6.95Q118.09-7.85 118.66-9.1 119.24-10.35 119.66-11.53 120.09-12.7 120.09-13.45L120.09-13.45Q120.09-14.15 119.59-14.15L119.59-14.15Q118.99-14.15 118.39-13.4 117.79-12.65 117.31-11.73 116.84-10.8 116.54-10.25L116.54-10.25Q115.79-8.8 114.84-7.08 113.89-5.35 112.94-4.05L112.94-4.05 112.89-4.05Q112.79-4.05 112.59-4.2 112.39-4.35 112.44-4.4L112.44-4.4Q113.44-5.7 114.36-7.4 115.29-9.1 115.99-10.5L115.99-10.5Q116.49-11.55 117.14-12.7 117.79-13.85 118.64-14.6L118.64-14.6Q119.64-15.45 120.64-15.45L120.64-15.45Q121.34-15.45 121.79-15.03 122.24-14.6 122.24-13.75L122.24-13.75Q122.24-13.55 122.21-13.35 122.19-13.15 122.14-12.9L122.14-12.9Q121.94-11.95 121.46-10.58 120.99-9.2 120.19-7.3L120.19-7.3Q118.44-3.15 118.44-1.55L118.44-1.55Q118.44-0.7 118.99-0.7L118.99-0.7Q119.74-0.7 121.24-2.05L121.24-2.05Q122.29-3 123.36-4.78 124.44-6.55 125.39-8.55 126.34-10.55 127.01-12.28 127.69-14 127.94-14.85L127.94-14.85Q128.78-15.05 129.84-15.35 130.89-15.65 131.69-16L131.69-16Q131.14-15.4 130.41-14.03 129.69-12.65 129.03-11.13 128.39-9.6 127.94-8.55L127.94-8.55Q127.24-6.8 126.76-5.38 126.29-3.95 125.86-2.6 125.44-1.25 124.84 0.4L124.84 0.4Q127.19-1.1 128.59-2.45 129.99-3.8 131.03-5.45 132.09-7.1 133.39-9.55L133.39-9.55Q133.49-9.7 133.64-9.7L133.64-9.7Q134.09-9.7 133.84-9.3L133.84-9.3Q132.74-7.25 131.86-5.78 130.99-4.3 130.01-3.13 129.03-1.95 127.74-0.93 126.44 0.1 124.54 1.25L124.54 1.25Q123.64 3.5 122.49 6.3 121.34 9.1 120.04 11.78 118.74 14.45 117.29 16.45L117.29 16.45Q116.04 18.2 114.66 19.1 113.29 20 112.29 20ZM112.44 19.3L112.44 19.3Q113.04 19.3 113.96 18.4 114.89 17.5 116.04 15.5L116.04 15.5Q116.99 13.8 117.96 11.78 118.94 9.75 119.79 7.8 120.64 5.85 121.24 4.4 121.84 2.95 122.04 2.45L122.04 2.45Q120.99 3.05 119.74 4.3 118.49 5.55 117.19 7.15 115.89 8.75 114.74 10.5 113.59 12.25 112.79 13.85L112.79 13.85Q111.59 16.3 111.59 17.9L111.59 17.9Q111.59 19.3 112.44 19.3Z" opacity="1" transform="matrix(1,0,0,1,0,0)" fill="#000000" class="wordmark-text-0" data-fill-palette-color="quaternary" id="text-0"></path></svg></g></svg></g></svg></g></svg></g><g transform="matrix(1,0,0,1,40.713262274387006,0)"><svg viewBox="0 0 131.7319166783831 121.13286422748308" height="121.13286422748308" width="131.7319166783831"><g><svg xmlns:dc="http://purl.org/dc/elements/1.1/" xmlns:cc="http://creativecommons.org/ns#" xmlns:rdf="http://www.w3.org/1999/02/22-rdf-syntax-ns#" xmlns:svg="http://www.w3.org/2000/svg" xmlns="http://www.w3.org/2000/svg" version="1.1" viewBox="15 25.862 270.00000003155054 248.27599999999998" xml:space="preserve" style="" x="0" y="0" fill-rule="evenodd" height="121.13286422748308" width="131.7319166783831" class="icon-icon-0" data-fill-palette-color="quaternary" id="icon-0"><path d="M150 25.862C120.562 25.862 96.854 49.57 96.854 79.009 96.854 94.32 103.195 108.079 113.536 117.802L83.276 169.784C78.509 168.385 73.368 167.457 68.147 167.457 38.707 167.457 15 191.163 15 220.603S38.707 274.138 68.147 274.138C93.35 274.138 114.574 256.522 120.13 233.018H179.87C185.428 256.521 206.651 274.137 231.854 274.137 261.294 274.138 285.001 250.043 285 220.603S261.295 167.457 231.854 167.457C226.633 167.457 221.494 168.385 216.724 169.784L186.467 117.414C196.697 107.7 203.147 94.23 203.147 79.009 203.147 49.569 179.441 25.862 150 25.862M150 50.69A28.21 28.21 0 0 1 178.32 79.009 28.21 28.21 0 0 1 150 107.328 28.21 28.21 0 0 1 121.682 79.008 28.21 28.21 0 0 1 150 50.69M134.871 130.216C139.641 131.615 144.78 132.156 150 132.156 155.277 132.155 160.316 131.643 165.13 130.215L195 182.198C187.841 189.071 182.708 198.236 180.26 208.19H119.743C117.269 198.137 111.883 189.1 104.613 182.198zM68.147 192.284A28.21 28.21 0 0 1 96.467 220.604C96.467 236.33 83.874 249.31 68.147 249.31S39.83 236.331 39.827 220.603A28.21 28.21 0 0 1 68.148 192.284M231.854 192.284A28.207 28.207 0 0 1 260.173 220.604C260.173 236.33 247.58 249.31 231.854 249.31S203.147 236.331 203.147 220.603C203.147 204.876 216.127 192.284 231.854 192.284" fill="#000000" fill-opacity="1" fill-rule="nonzero" stroke="none" marker="none" visibility="visible" display="inline" overflow="visible" color="#000000" enable-background="accumulate" data-fill-palette-color="quaternary"></path></svg><g></g></g></svg></g><g></g></svg></g></svg></g></svg></g></svg></g><defs></defs></svg><rect width="333.90454557049503" height="333.90454557049503" fill="none" stroke="none" visibility="hidden"></rect></g></svg></g></svg>