<svg xmlns="http://www.w3.org/2000/svg" version="1.1" xmlns:xlink="http://www.w3.org/1999/xlink" xmlns:svgjs="http://svgjs.dev/svgjs" width="128" height="128" viewBox="0 0 128 128"><g transform="matrix(0.8046875,0,0,0.8046875,12.41184074821259,12.814873242367177)"><svg viewBox="0 0 98 98" data-background-color="#293040" preserveAspectRatio="xMidYMid meet" height="127" width="128" xmlns="http://www.w3.org/2000/svg" xmlns:xlink="http://www.w3.org/1999/xlink"><g id="tight-bounds" transform="matrix(1,0,0,1,0.08387967645792571,0.08387967645792571)"><svg viewBox="0 0 97.83224064708415 97.83224064708415" height="97.83224064708415" width="97.83224064708415"><g><svg></svg></g><g><svg viewBox="0 0 97.83224064708415 97.83224064708415" height="97.83224064708415" width="97.83224064708415"><g><path d="M0 48.916c0-27.016 21.9-48.916 48.916-48.916 27.016 0 48.916 21.9 48.916 48.916 0 27.016-21.9 48.916-48.916 48.916-27.016 0-48.916-21.9-48.916-48.916zM48.916 93.613c24.685 0 44.697-20.011 44.697-44.697 0-24.685-20.011-44.697-44.697-44.697-24.685 0-44.697 20.011-44.697 44.697 0 24.685 20.011 44.697 44.697 44.697z" data-fill-palette-color="tertiary" fill="#ffffff" stroke="transparent"></path><ellipse rx="46.95947551060039" ry="46.95947551060039" cx="48.916120323542074" cy="48.916120323542074" fill="#ffffff" stroke="transparent" stroke-width="0" fill-opacity="1" data-fill-palette-color="tertiary"></ellipse></g><g transform="matrix(1,0,0,1,23.47539391502934,25.522335919609404)"><svg viewBox="0 0 50.88145281702547 46.78756880786534" height="46.78756880786534" width="50.88145281702547"><g><svg viewBox="0 0 50.88145281702547 46.78756880786534" height="46.78756880786534" width="50.88145281702547"><g><svg viewBox="0 0 50.88145281702547 46.78756880786534" height="46.78756880786534" width="50.88145281702547"><g id="textblocktransform"><svg viewBox="0 0 50.88145281702547 46.78756880786534" height="46.78756880786534" width="50.88145281702547" id="textblock"><g><svg viewBox="0 0 50.88145281702547 46.78756880786534" height="46.78756880786534" width="50.88145281702547"><g><svg viewBox="0 0 50.88145281702547 46.78756880786534" height="46.78756880786534" width="50.88145281702547"><g><svg xmlns:dc="http://purl.org/dc/elements/1.1/" xmlns:cc="http://creativecommons.org/ns#" xmlns:rdf="http://www.w3.org/1999/02/22-rdf-syntax-ns#" xmlns:svg="http://www.w3.org/2000/svg" xmlns="http://www.w3.org/2000/svg" version="1.1" viewBox="15 25.862 270.00000003155054 248.27599999999998" xml:space="preserve" style="" x="0" y="0" fill-rule="evenodd" height="46.78756880786534" width="50.88145281702547" class="icon-icon-0" data-fill-palette-color="quaternary" id="icon-0"><path d="M150 25.862C120.562 25.862 96.854 49.57 96.854 79.009 96.854 94.32 103.195 108.079 113.536 117.802L83.276 169.784C78.509 168.385 73.368 167.457 68.147 167.457 38.707 167.457 15 191.163 15 220.603S38.707 274.138 68.147 274.138C93.35 274.138 114.574 256.522 120.13 233.018H179.87C185.428 256.521 206.651 274.137 231.854 274.137 261.294 274.138 285.001 250.043 285 220.603S261.295 167.457 231.854 167.457C226.633 167.457 221.494 168.385 216.724 169.784L186.467 117.414C196.697 107.7 203.147 94.23 203.147 79.009 203.147 49.569 179.441 25.862 150 25.862M150 50.69A28.21 28.21 0 0 1 178.32 79.009 28.21 28.21 0 0 1 150 107.328 28.21 28.21 0 0 1 121.682 79.008 28.21 28.21 0 0 1 150 50.69M134.871 130.216C139.641 131.615 144.78 132.156 150 132.156 155.277 132.155 160.316 131.643 165.13 130.215L195 182.198C187.841 189.071 182.708 198.236 180.26 208.19H119.743C117.269 198.137 111.883 189.1 104.613 182.198zM68.147 192.284A28.21 28.21 0 0 1 96.467 220.604C96.467 236.33 83.874 249.31 68.147 249.31S39.83 236.331 39.827 220.603A28.21 28.21 0 0 1 68.148 192.284M231.854 192.284A28.207 28.207 0 0 1 260.173 220.604C260.173 236.33 247.58 249.31 231.854 249.31S203.147 236.331 203.147 220.603C203.147 204.876 216.127 192.284 231.854 192.284" fill="#000000" fill-opacity="1" fill-rule="nonzero" stroke="none" marker="none" visibility="visible" display="inline" overflow="visible" color="#000000" enable-background="accumulate" data-fill-palette-color="quaternary"></path></svg><g></g></g></svg></g></svg></g></svg></g></svg></g><g></g></svg></g></svg></g></svg></g><defs></defs></svg><rect width="97.83224064708415" height="97.83224064708415" fill="none" stroke="none" visibility="hidden"></rect></g></svg></g></svg>